<svg id="Layer_1" data-name="Layer 1" xmlns="http://www.w3.org/2000/svg" viewBox="0 0 1000 1000"><defs><style>.cls-1{fill:#231f20;}</style></defs><title>indoking</title><path class="cls-1" d="M840.85,226.26,619.36,477.83l215,313a439.76,439.76,0,0,0,6.52-564.6Z"/><path class="cls-1" d="M501.44,599.25l-62,69V826.37H270V360.61H439.42V463L649.94,214.9H831.21c-80.6-91.95-198.92-150-330.8-150-242.9,0-439.8,196.9-439.8,439.79s196.9,439.8,439.8,439.8a438.23,438.23,0,0,0,299.84-118.1H655.18ZM351.19,154.69A88.23,88.23,0,1,1,263,242.92,88.23,88.23,0,0,1,351.19,154.69Z"/></svg>